<svg width="162" height="51" viewBox="0 0 162 51" fill="none" xmlns="http://www.w3.org/2000/svg">
<path d="M1 2L11.586 41.6219H17.3327L10.0737 13.4934C14.9035 15.707 19.9201 17.4881 25.0645 18.8157L26.7089 19.2401L30.7415 20.1042C33.6907 20.7362 36.6984 21.0548 39.7146 21.0548C43.084 20.8566 46.3434 19.7825 49.1706 17.9387L49.4831 17.7349C51.0294 16.7265 52.703 15.9284 54.4599 15.3616L61.189 13.1909L71.1701 11.3762L81.4537 10.7713L91.4348 11.3762L101.113 13.1909L105.309 14.5895C108.555 15.6716 111.705 17.0249 114.724 18.6352C117.466 20.3979 120.724 21.1807 123.967 20.8564L128.032 20.4499L129.521 20.2513C134.566 19.5787 139.536 18.4299 144.365 16.8204L152.229 13.4934L144.365 41.6219H150.716L161 2L152.229 7.74669C145.589 10.5637 138.705 12.7684 131.664 14.3331L131.359 14.4008L125.612 15.0057H123.717C121.975 15.0057 120.252 14.6452 118.656 13.9471L116.236 12.8885L111.699 10.7713C105.257 8.55664 98.6509 6.84955 91.942 5.66563L91.7372 5.62949L81.4537 5.02457L70.8677 5.62949L70.5313 5.67896C63.9206 6.65113 57.4392 8.35917 51.2079 10.7713L46.6711 12.8885L44.8001 13.9576C43.2513 14.8426 41.4984 15.3081 39.7146 15.3081L36.9924 15.0057L31.8507 14.4008L30.9855 14.2137C24.1188 12.729 17.4175 10.5626 10.9811 7.74669L1 2Z" fill="white" stroke="white"/>
<path d="M43.7972 42.24C43.0932 42.24 42.3892 42.184 41.6852 42.072C40.9812 41.976 40.3172 41.824 39.6932 41.616C39.0692 41.392 38.5092 41.12 38.0132 40.8C37.7252 40.608 37.5252 40.376 37.4132 40.104C37.3012 39.832 37.2612 39.568 37.2932 39.312C37.3412 39.04 37.4452 38.808 37.6052 38.616C37.7812 38.408 37.9972 38.28 38.2532 38.232C38.5092 38.184 38.7892 38.256 39.0932 38.448C39.7972 38.864 40.5412 39.168 41.3252 39.36C42.1092 39.552 42.9332 39.648 43.7972 39.648C45.0612 39.648 45.9812 39.44 46.5572 39.024C47.1332 38.592 47.4212 38.04 47.4212 37.368C47.4212 36.808 47.2132 36.368 46.7972 36.048C46.3972 35.728 45.7012 35.464 44.7092 35.256L42.0692 34.704C40.5492 34.384 39.4132 33.848 38.6612 33.096C37.9252 32.328 37.5572 31.32 37.5572 30.072C37.5572 29.288 37.7172 28.576 38.0372 27.936C38.3572 27.296 38.8052 26.744 39.3812 26.28C39.9732 25.816 40.6692 25.464 41.4692 25.224C42.2852 24.968 43.1812 24.84 44.1572 24.84C45.1172 24.84 46.0292 24.96 46.8932 25.2C47.7572 25.44 48.5332 25.792 49.2212 26.256C49.4772 26.432 49.6452 26.648 49.7252 26.904C49.8212 27.16 49.8452 27.416 49.7972 27.672C49.7492 27.912 49.6372 28.12 49.4612 28.296C49.2852 28.472 49.0612 28.576 48.7892 28.608C48.5332 28.64 48.2372 28.56 47.9012 28.368C47.3092 28.032 46.7092 27.792 46.1012 27.648C45.4932 27.504 44.8372 27.432 44.1332 27.432C43.3972 27.432 42.7652 27.536 42.2372 27.744C41.7092 27.952 41.3012 28.248 41.0132 28.632C40.7412 29 40.6052 29.44 40.6052 29.952C40.6052 30.528 40.7972 30.992 41.1812 31.344C41.5652 31.68 42.2212 31.944 43.1492 32.136L45.7652 32.688C47.3492 33.024 48.5252 33.552 49.2932 34.272C50.0772 34.992 50.4692 35.952 50.4692 37.152C50.4692 37.92 50.3092 38.616 49.9892 39.24C49.6852 39.864 49.2372 40.4 48.6452 40.848C48.0692 41.296 47.3732 41.64 46.5572 41.88C45.7412 42.12 44.8212 42.24 43.7972 42.24ZM56.6818 42.24C55.8338 42.24 55.0738 42.08 54.4018 41.76C53.7458 41.424 53.2258 40.976 52.8418 40.416C52.4738 39.856 52.2898 39.224 52.2898 38.52C52.2898 37.656 52.5138 36.976 52.9618 36.48C53.4098 35.968 54.1378 35.6 55.1458 35.376C56.1538 35.152 57.5058 35.04 59.2018 35.04H60.4018V36.768H59.2258C58.2338 36.768 57.4418 36.816 56.8498 36.912C56.2578 37.008 55.8338 37.176 55.5778 37.416C55.3378 37.64 55.2178 37.96 55.2178 38.376C55.2178 38.904 55.4018 39.336 55.7698 39.672C56.1378 40.008 56.6498 40.176 57.3058 40.176C57.8338 40.176 58.2978 40.056 58.6978 39.816C59.1138 39.56 59.4418 39.216 59.6818 38.784C59.9218 38.352 60.0418 37.856 60.0418 37.296V34.536C60.0418 33.736 59.8658 33.16 59.5138 32.808C59.1618 32.456 58.5698 32.28 57.7378 32.28C57.2738 32.28 56.7698 32.336 56.2258 32.448C55.6978 32.56 55.1378 32.752 54.5458 33.024C54.2418 33.168 53.9698 33.208 53.7298 33.144C53.5058 33.08 53.3298 32.952 53.2018 32.76C53.0738 32.552 53.0098 32.328 53.0098 32.088C53.0098 31.848 53.0738 31.616 53.2018 31.392C53.3298 31.152 53.5458 30.976 53.8498 30.864C54.5858 30.56 55.2898 30.344 55.9618 30.216C56.6498 30.088 57.2738 30.024 57.8338 30.024C58.9858 30.024 59.9298 30.2 60.6658 30.552C61.4178 30.904 61.9778 31.44 62.3458 32.16C62.7138 32.864 62.8978 33.776 62.8978 34.896V40.656C62.8978 41.152 62.7778 41.536 62.5378 41.808C62.2978 42.064 61.9538 42.192 61.5058 42.192C61.0578 42.192 60.7058 42.064 60.4498 41.808C60.2098 41.536 60.0898 41.152 60.0898 40.656V39.504H60.2818C60.1698 40.064 59.9458 40.552 59.6098 40.968C59.2898 41.368 58.8818 41.68 58.3858 41.904C57.8898 42.128 57.3218 42.24 56.6818 42.24ZM70.5776 42.192C70.1776 42.192 69.8256 42.088 69.5216 41.88C69.2336 41.672 68.9936 41.352 68.8016 40.92L64.9856 32.064C64.8416 31.712 64.7856 31.384 64.8176 31.08C64.8656 30.776 65.0096 30.536 65.2496 30.36C65.5056 30.168 65.8496 30.072 66.2816 30.072C66.6496 30.072 66.9456 30.16 67.1696 30.336C67.3936 30.496 67.5936 30.808 67.7696 31.272L71.0096 39.36H70.2896L73.6256 31.248C73.8016 30.8 74.0016 30.496 74.2256 30.336C74.4656 30.16 74.7856 30.072 75.1856 30.072C75.5376 30.072 75.8176 30.168 76.0256 30.36C76.2336 30.536 76.3616 30.776 76.4096 31.08C76.4576 31.368 76.4016 31.688 76.2416 32.04L72.3536 40.92C72.1776 41.352 71.9376 41.672 71.6336 41.88C71.3456 42.088 70.9936 42.192 70.5776 42.192Z" fill="white"/>
<path d="M80.3059 42.192C79.8099 42.192 79.4259 42.056 79.1539 41.784C78.8979 41.496 78.7699 41.104 78.7699 40.608V26.64C78.7699 26.128 78.9059 25.744 79.1779 25.488C79.4499 25.216 79.8339 25.08 80.3299 25.08H86.1139C87.9699 25.08 89.4019 25.544 90.4099 26.472C91.4179 27.4 91.9219 28.696 91.9219 30.36C91.9219 32.024 91.4179 33.328 90.4099 34.272C89.4019 35.2 87.9699 35.664 86.1139 35.664H81.8419V40.608C81.8419 41.104 81.7139 41.496 81.4579 41.784C81.2019 42.056 80.8179 42.192 80.3059 42.192ZM81.8419 33.24H85.6339C86.7219 33.24 87.5459 33 88.1059 32.52C88.6659 32.024 88.9459 31.304 88.9459 30.36C88.9459 29.416 88.6659 28.704 88.1059 28.224C87.5459 27.744 86.7219 27.504 85.6339 27.504H81.8419V33.24ZM99.3362 42.24C98.0082 42.24 96.8642 41.992 95.9042 41.496C94.9442 41 94.2002 40.296 93.6722 39.384C93.1602 38.472 92.9042 37.392 92.9042 36.144C92.9042 34.928 93.1522 33.864 93.6482 32.952C94.1602 32.04 94.8562 31.328 95.7362 30.816C96.6322 30.288 97.6482 30.024 98.7842 30.024C99.6162 30.024 100.36 30.16 101.016 30.432C101.688 30.704 102.256 31.096 102.72 31.608C103.2 32.12 103.56 32.744 103.8 33.48C104.056 34.2 104.184 35.016 104.184 35.928C104.184 36.216 104.08 36.44 103.872 36.6C103.68 36.744 103.4 36.816 103.032 36.816H95.3282V35.088H102.072L101.688 35.448C101.688 34.712 101.576 34.096 101.352 33.6C101.144 33.104 100.832 32.728 100.416 32.472C100.016 32.2 99.5122 32.064 98.9042 32.064C98.2322 32.064 97.6562 32.224 97.1762 32.544C96.7122 32.848 96.3522 33.288 96.0962 33.864C95.8562 34.424 95.7362 35.096 95.7362 35.88V36.048C95.7362 37.36 96.0402 38.344 96.6482 39C97.2722 39.64 98.1842 39.96 99.3842 39.96C99.8002 39.96 100.264 39.912 100.776 39.816C101.304 39.704 101.8 39.52 102.264 39.264C102.6 39.072 102.896 38.992 103.152 39.024C103.408 39.04 103.608 39.128 103.752 39.288C103.912 39.448 104.008 39.648 104.04 39.888C104.072 40.112 104.024 40.344 103.896 40.584C103.784 40.824 103.584 41.032 103.296 41.208C102.736 41.56 102.088 41.824 101.352 42C100.632 42.16 99.9602 42.24 99.3362 42.24ZM111.889 42.24C110.849 42.24 109.977 42.064 109.273 41.712C108.585 41.36 108.073 40.848 107.737 40.176C107.401 39.488 107.233 38.64 107.233 37.632V32.52H105.985C105.601 32.52 105.305 32.424 105.097 32.232C104.889 32.024 104.785 31.744 104.785 31.392C104.785 31.024 104.889 30.744 105.097 30.552C105.305 30.36 105.601 30.264 105.985 30.264H107.233V28.08C107.233 27.584 107.361 27.208 107.617 26.952C107.889 26.696 108.265 26.568 108.745 26.568C109.225 26.568 109.593 26.696 109.849 26.952C110.105 27.208 110.233 27.584 110.233 28.08V30.264H112.777C113.161 30.264 113.457 30.36 113.665 30.552C113.873 30.744 113.977 31.024 113.977 31.392C113.977 31.744 113.873 32.024 113.665 32.232C113.457 32.424 113.161 32.52 112.777 32.52H110.233V37.464C110.233 38.232 110.401 38.808 110.737 39.192C111.073 39.576 111.617 39.768 112.369 39.768C112.641 39.768 112.881 39.744 113.089 39.696C113.297 39.648 113.481 39.616 113.641 39.6C113.833 39.584 113.993 39.648 114.121 39.792C114.249 39.92 114.313 40.192 114.313 40.608C114.313 40.928 114.257 41.216 114.145 41.472C114.049 41.712 113.865 41.88 113.593 41.976C113.385 42.04 113.113 42.096 112.777 42.144C112.441 42.208 112.145 42.24 111.889 42.24ZM120.02 42.24C119.332 42.24 118.604 42.168 117.836 42.024C117.068 41.88 116.38 41.632 115.772 41.28C115.516 41.12 115.332 40.936 115.22 40.728C115.124 40.504 115.084 40.288 115.1 40.08C115.132 39.856 115.212 39.664 115.34 39.504C115.484 39.344 115.66 39.24 115.868 39.192C116.092 39.144 116.332 39.184 116.588 39.312C117.228 39.616 117.828 39.832 118.388 39.96C118.948 40.072 119.5 40.128 120.044 40.128C120.812 40.128 121.38 40 121.748 39.744C122.132 39.472 122.324 39.12 122.324 38.688C122.324 38.32 122.196 38.04 121.94 37.848C121.7 37.64 121.332 37.488 120.836 37.392L118.436 36.936C117.444 36.744 116.684 36.384 116.156 35.856C115.644 35.312 115.388 34.616 115.388 33.768C115.388 33 115.596 32.336 116.012 31.776C116.444 31.216 117.036 30.784 117.788 30.48C118.54 30.176 119.404 30.024 120.38 30.024C121.084 30.024 121.74 30.104 122.348 30.264C122.972 30.408 123.572 30.64 124.148 30.96C124.388 31.088 124.548 31.256 124.628 31.464C124.724 31.672 124.748 31.888 124.7 32.112C124.652 32.32 124.556 32.512 124.412 32.688C124.268 32.848 124.084 32.952 123.86 33C123.652 33.032 123.412 32.984 123.14 32.856C122.644 32.6 122.164 32.416 121.7 32.304C121.252 32.192 120.82 32.136 120.404 32.136C119.62 32.136 119.036 32.272 118.652 32.544C118.284 32.816 118.1 33.176 118.1 33.624C118.1 33.96 118.212 34.24 118.436 34.464C118.66 34.688 119.004 34.84 119.468 34.92L121.868 35.376C122.908 35.568 123.692 35.92 124.22 36.432C124.764 36.944 125.036 37.632 125.036 38.496C125.036 39.664 124.58 40.584 123.668 41.256C122.756 41.912 121.54 42.24 120.02 42.24Z" fill="#7DD3FC"/>
</svg>
