<svg width="200" height="148" viewBox="0 0 200 148" fill="none" xmlns="http://www.w3.org/2000/svg">
<g clip-path="url(#clip0_697_1090)">
<path d="M170.194 146.765V130.438C170.194 130.438 176.557 142.013 170.194 146.765Z" fill="#F1F1F1"/>
<path d="M170.587 146.762L158.559 135.72C158.559 135.72 171.39 138.861 170.587 146.762Z" fill="#F1F1F1"/>
<path d="M43.152 0H14.3839L0 24.9137L14.3839 49.8276H43.152L57.5359 24.9137L43.152 0Z" fill="#CBD5E1"/>
<path d="M15.9985 47.031H41.5373L54.3068 24.9137L41.5373 2.79639H15.9985L3.229 24.9137L15.9985 47.031Z" fill="#0F172A"/>
<path d="M15.6902 19.4941C16.3409 19.4941 16.8683 18.9666 16.8683 18.3159C16.8683 17.6652 16.3409 17.1377 15.6902 17.1377C15.0395 17.1377 14.512 17.6652 14.512 18.3159C14.512 18.9666 15.0395 19.4941 15.6902 19.4941Z" fill="#CBD5E1"/>
<path d="M15.6902 26.092C16.3409 26.092 16.8683 25.5645 16.8683 24.9138C16.8683 24.2631 16.3409 23.7356 15.6902 23.7356C15.0395 23.7356 14.512 24.2631 14.512 24.9138C14.512 25.5645 15.0395 26.092 15.6902 26.092Z" fill="#CBD5E1"/>
<path d="M15.6902 32.6898C16.3409 32.6898 16.8683 32.1623 16.8683 31.5116C16.8683 30.8609 16.3409 30.3334 15.6902 30.3334C15.0395 30.3334 14.512 30.8609 14.512 31.5116C14.512 32.1623 15.0395 32.6898 15.6902 32.6898Z" fill="#CBD5E1"/>
<path d="M43.024 17.3734H20.6384V19.2585H43.024V17.3734Z" fill="#CBD5E1"/>
<path d="M43.024 23.9712H20.6384V25.8563H43.024V23.9712Z" fill="#CBD5E1"/>
<path d="M43.024 30.5691H20.6384V32.4542H43.024V30.5691Z" fill="#CBD5E1"/>
<path d="M185.616 0H156.848L142.464 24.9137L156.848 49.8276H185.616L200 24.9137L185.616 0Z" fill="#CBD5E1"/>
<path d="M158.463 47.031H184.001L196.771 24.9137L184.001 2.79639H158.463L145.693 24.9137L158.463 47.031Z" fill="#0F172A"/>
<path d="M158.154 19.4941C158.805 19.4941 159.332 18.9666 159.332 18.3159C159.332 17.6652 158.805 17.1377 158.154 17.1377C157.503 17.1377 156.976 17.6652 156.976 18.3159C156.976 18.9666 157.503 19.4941 158.154 19.4941Z" fill="#CBD5E1"/>
<path d="M158.154 26.092C158.805 26.092 159.332 25.5645 159.332 24.9138C159.332 24.2631 158.805 23.7356 158.154 23.7356C157.503 23.7356 156.976 24.2631 156.976 24.9138C156.976 25.5645 157.503 26.092 158.154 26.092Z" fill="#CBD5E1"/>
<path d="M158.154 32.6898C158.805 32.6898 159.332 32.1623 159.332 31.5116C159.332 30.8609 158.805 30.3334 158.154 30.3334C157.503 30.3334 156.976 30.8609 156.976 31.5116C156.976 32.1623 157.503 32.6898 158.154 32.6898Z" fill="#CBD5E1"/>
<path d="M185.488 17.3734H163.103V19.2585H185.488V17.3734Z" fill="#CBD5E1"/>
<path d="M185.488 23.9712H163.103V25.8563H185.488V23.9712Z" fill="#CBD5E1"/>
<path d="M185.488 30.5691H163.103V32.4542H185.488V30.5691Z" fill="#CBD5E1"/>
<path d="M114.244 0.241943H85.7554L71.5112 24.9137L85.7554 49.5857H114.244L128.489 24.9137L114.244 0.241943Z" fill="#38BDF8"/>
<path d="M87.3544 46.8163H112.645L125.291 24.9138L112.645 3.01123H87.3544L74.709 24.9138L87.3544 46.8163Z" fill="#0F172A"/>
<path d="M87.0491 19.5468C87.6935 19.5468 88.2158 19.0244 88.2158 18.38C88.2158 17.7356 87.6935 17.2133 87.0491 17.2133C86.4047 17.2133 85.8823 17.7356 85.8823 18.38C85.8823 19.0244 86.4047 19.5468 87.0491 19.5468Z" fill="#38BDF8"/>
<path d="M87.0491 26.0805C87.6935 26.0805 88.2158 25.5581 88.2158 24.9138C88.2158 24.2694 87.6935 23.747 87.0491 23.747C86.4047 23.747 85.8823 24.2694 85.8823 24.9138C85.8823 25.5581 86.4047 26.0805 87.0491 26.0805Z" fill="#38BDF8"/>
<path d="M87.0491 32.6143C87.6935 32.6143 88.2158 32.0919 88.2158 31.4476C88.2158 30.8032 87.6935 30.2808 87.0491 30.2808C86.4047 30.2808 85.8823 30.8032 85.8823 31.4476C85.8823 32.0919 86.4047 32.6143 87.0491 32.6143Z" fill="#38BDF8"/>
<path d="M114.118 17.4466H91.9495V19.3134H114.118V17.4466Z" fill="#38BDF8"/>
<path d="M114.118 23.9803H91.9495V25.8471H114.118V23.9803Z" fill="#38BDF8"/>
<path d="M114.118 30.5142H91.9495V32.381H114.118V30.5142Z" fill="#38BDF8"/>
<path d="M124.288 144.391L121.52 144.391L120.204 133.718L124.288 133.718L124.288 144.391Z" fill="#9F616A"/>
<path d="M124.993 147.074L116.071 147.073V146.96C116.071 146.039 116.437 145.156 117.088 144.505C117.739 143.854 118.623 143.488 119.544 143.488L124.993 143.488L124.993 147.074Z" fill="#334155"/>
<path d="M150.018 144.391L147.251 144.391L145.934 133.718L150.018 133.718L150.018 144.391Z" fill="#9F616A"/>
<path d="M150.724 147.074L141.801 147.073V146.96C141.801 146.039 142.167 145.156 142.818 144.505C143.47 143.854 144.353 143.488 145.274 143.488L150.724 143.488L150.724 147.074Z" fill="#334155"/>
<path d="M123.185 90.228C123.185 90.228 120.862 96.5323 121.194 99.1867C121.526 101.841 118.871 120.422 119.203 122.081C119.535 123.74 118.871 132.035 119.203 133.362C119.535 134.69 118.272 136.275 118.935 137.602C119.599 138.929 120.53 141.658 120.53 141.658L124.844 141.326L125.507 137.676C125.507 137.676 127.498 137.344 127.166 135.353C126.834 133.362 128.825 120.09 128.825 120.09L134.466 101.509L142.429 118.431C142.429 118.431 142.761 130.376 143.756 131.703C144.752 133.031 142.761 136.68 143.756 138.008C144.752 139.335 145.747 141.658 145.747 141.658H150.724V139.003C150.724 139.003 153.711 137.344 150.724 132.367L148.706 102.478L146.716 88.8738L123.185 90.228Z" fill="#334155"/>
<path d="M135.554 48.5069C138.976 48.5069 141.751 45.7323 141.751 42.3096C141.751 38.887 138.976 36.1124 135.554 36.1124C132.131 36.1124 129.356 38.887 129.356 42.3096C129.356 45.7323 132.131 48.5069 135.554 48.5069Z" fill="#A0616A"/>
<path d="M130.28 41.8821C130.717 42.9994 131.154 44.1166 131.592 45.2339C132.129 46.6074 132.745 48.0769 134.005 48.8435C135.561 49.7899 137.639 49.3284 139.144 48.3032C140.498 47.3811 141.537 46.0669 142.122 44.537C142.707 43.0071 142.809 41.3348 142.416 39.7448C142.023 38.1548 141.153 36.7232 139.922 35.6423C138.691 34.5614 137.16 33.8829 135.532 33.6981L135.47 34.8199L134.093 33.666C133.991 33.8407 133.851 33.9901 133.684 34.1029C133.516 34.2157 133.325 34.289 133.124 34.3173C132.924 34.3456 132.72 34.3282 132.528 34.2663C132.335 34.2045 132.159 34.0998 132.013 33.9602C132.374 34.7098 131.957 35.624 131.354 36.1983C130.614 36.9037 128.496 37.7514 128.584 39.0125C128.643 39.854 129.939 41.01 130.28 41.8821Z" fill="#2F2E41"/>
<path d="M152.613 99.3953C152.826 99.0766 152.967 98.715 153.026 98.3359C153.085 97.9568 153.059 97.5694 152.952 97.2011C152.845 96.8327 152.658 96.4924 152.405 96.204C152.152 95.9156 151.839 95.6862 151.488 95.5319L151.612 89.5367L147.987 88.5729L147.931 97.0417C147.711 97.6489 147.721 98.3158 147.96 98.9159C148.199 99.516 148.649 100.008 149.226 100.298C149.803 100.588 150.467 100.656 151.091 100.49C151.715 100.324 152.256 99.9341 152.613 99.3953Z" fill="#9F616A"/>
<path d="M140.157 52.3371C140.157 52.3371 135.355 49.9359 130.819 51.5367C126.284 53.1375 123.882 55.0051 123.882 55.0051L126.817 70.4795L122.815 91.2899C122.815 91.2899 143.359 89.6891 145.226 91.2899C147.094 92.8907 147.094 89.4223 147.094 89.4223L145.493 69.6791L148.428 57.1395L140.157 52.3371Z" fill="#0284C7"/>
<path d="M119.888 99.7503C120.183 99.5044 120.42 99.1969 120.582 98.8495C120.745 98.5022 120.83 98.1233 120.83 97.7397C120.831 97.3561 120.747 96.977 120.585 96.6292C120.423 96.2814 120.187 95.9733 119.894 95.7266L121.696 90.0073L118.487 88.0645L116.056 96.177C115.674 96.698 115.497 97.3409 115.557 97.9839C115.618 98.627 115.912 99.2254 116.385 99.6658C116.857 100.106 117.475 100.358 118.12 100.374C118.766 100.389 119.395 100.167 119.888 99.7503Z" fill="#9F616A"/>
<path d="M125.75 55.0051H123.883C123.883 55.0051 120.948 56.8727 120.948 59.5407C120.948 62.2087 116.679 93.4243 116.679 93.4243L121.215 94.2247L125.217 72.3471L128.151 66.4775L125.75 55.0051Z" fill="#0284C7"/>
<path d="M143.359 57.1395H148.428C148.428 57.1395 150.029 58.7403 150.829 62.4755C151.63 66.2107 152.43 80.8846 152.43 80.8846L151.896 94.2246H147.894L147.361 76.8826L144.693 65.6771L143.359 57.1395Z" fill="#0284C7"/>
<path d="M181.656 147.246H95.6627C95.6029 147.246 95.5455 147.222 95.5031 147.179C95.4608 147.137 95.437 147.08 95.437 147.02C95.437 146.96 95.4608 146.903 95.5031 146.86C95.5455 146.818 95.6029 146.794 95.6627 146.794H181.656C181.716 146.794 181.773 146.818 181.816 146.86C181.858 146.903 181.882 146.96 181.882 147.02C181.882 147.08 181.858 147.137 181.816 147.179C181.773 147.222 181.716 147.246 181.656 147.246Z" fill="#F1F5F9"/>
</g>
<defs>
<clipPath id="clip0_697_1090">
<rect width="200" height="147.246" fill="white"/>
</clipPath>
</defs>
</svg>
